<?xml version="1.0" encoding="UTF-8" standalone="no"?>
<svg viewBox="0 0 64 64" version="1.1" xmlns="http://www.w3.org/2000/svg">
<g fill="#ff8df8">
    <rect width="6" height="58" x="0" y="2" ry="3"/>
    <rect width="6" height="42" x="29" y="2" ry="3"/>
    <rect width="6" height="30" x="58" y="19.5"/>
    <path d="M 46.5 2 A 17.5 17.5 0 0 0 29 19.5 L 35 19.5 A 11.5 11.5 0 0 1 46.5 8.5 A 11.5 11.5 0 0 1 58 19.5 L 64 19.5 A 17.5 17.5 0 0 0 46.5 2 z "/>
    <path d="M 0 27.5 A 17.5 17.5 0 0 0 8.75 42.5 A 17.5 17.5 0 0 0 26.25 42.5 A 17.5 17.5 0 0 0 35 27.5 L 29 27.5 A 11.5 11.5 0 0 1 17.5 39 A 11.5 11.5 0 0 1 6 27.5 L 0 27.5 z "/>
    <path d="M 58 49.5 A 6.5 6.5 0 0 1 56.1 54.1 A 6.5 6.5 0 0 1 51.5 56 L 51.5 62 A 12.5 12.5 0 0 0 64 49.5 L 58 49.5 z "/>
    <circle cx="51.5" cy="59" r="3"/>
</g>
</svg>